<svg xmlns="http://www.w3.org/2000/svg" viewBox="0 0 1200 675" role="img" aria-label="DETRAF"><defs><linearGradient id="bg" x1="0" x2="1" y1="0" y2="1"><stop stop-color="#071831"/><stop offset=".55" stop-color="#0c2450"/><stop offset="1" stop-color="#5e2fb4"/></linearGradient><linearGradient id="or" x1="0" x2="1"><stop stop-color="#ff7a1a"/><stop offset="1" stop-color="#ffbd6b"/></linearGradient><filter id="glow"><feGaussianBlur stdDeviation="8" result="b"/><feMerge><feMergeNode in="b"/><feMergeNode in="SourceGraphic"/></feMerge></filter></defs><rect width="1200" height="675" fill="url(#bg)"/><circle cx="1010" cy="120" r="220" fill="#ff7a1a" opacity=".13"/><circle cx="160" cy="560" r="240" fill="#2fb4ff" opacity=".10"/><path d="M0 610 C260 520 420 690 690 585 S1030 510 1200 560 V675 H0Z" fill="#ffffff" opacity=".06"/><text x="70" y="92" fill="#ffbd6b" font-family="Inter,Arial" font-size="26" font-weight="800" letter-spacing="3">ZICTEC BLOG</text><text x="70" y="145" fill="#fff" font-family="Inter,Arial" font-size="46" font-weight="900">DETRAF</text><text x="70" y="192" fill="#c9d8ef" font-family="Inter,Arial" font-size="24">Conciliação, cobrança e margem invisível</text><g transform="translate(80 245)"><rect x="0" y="0" width="320" height="210" rx="26" fill="#fff" opacity=".12"/><text x="28" y="50" fill="#fff" font-family="Inter,Arial" font-size="24" font-weight="900">Cobrado</text><text x="28" y="96" fill="#ffbd6b" font-family="Inter,Arial" font-size="42" font-weight="900">R$ ?</text><text x="28" y="145" fill="#c9d8ef" font-family="Inter,Arial" font-size="20">sem conferência vira custo</text><rect x="440" y="0" width="320" height="210" rx="26" fill="#fff" opacity=".12"/><text x="468" y="50" fill="#fff" font-family="Inter,Arial" font-size="24" font-weight="900">CDRs próprios</text><path d="M480 95 h220 M480 130 h170 M480 165 h245" stroke="#c9d8ef" stroke-width="10" stroke-linecap="round" opacity=".8"/><rect x="880" y="0" width="230" height="210" rx="26" fill="url(#or)"/><text x="910" y="62" fill="#071831" font-family="Inter,Arial" font-size="26" font-weight="900">Conciliação</text><text x="910" y="115" fill="#071831" font-family="Inter,Arial" font-size="40" font-weight="900">economia</text><text x="910" y="155" fill="#071831" font-family="Inter,Arial" font-size="22" font-weight="800">+ receita devida</text><path d="M330 105 H435 M760 105 H875" stroke="#ffbd6b" stroke-width="7" stroke-linecap="round"/></g><text x="70" y="620" fill="#ffffff" opacity=".72" font-family="Inter,Arial" font-size="20" font-weight="700">Consultoria técnica e regulatória para operações de voz</text></svg>