<svg xmlns="http://www.w3.org/2000/svg" viewBox="0 0 1200 675" role="img" aria-label="ISP + STFC"><defs><linearGradient id="bg" x1="0" x2="1" y1="0" y2="1"><stop stop-color="#071831"/><stop offset=".55" stop-color="#0c2450"/><stop offset="1" stop-color="#5e2fb4"/></linearGradient><linearGradient id="or" x1="0" x2="1"><stop stop-color="#ff7a1a"/><stop offset="1" stop-color="#ffbd6b"/></linearGradient><filter id="glow"><feGaussianBlur stdDeviation="8" result="b"/><feMerge><feMergeNode in="b"/><feMergeNode in="SourceGraphic"/></feMerge></filter></defs><rect width="1200" height="675" fill="url(#bg)"/><circle cx="1010" cy="120" r="220" fill="#ff7a1a" opacity=".13"/><circle cx="160" cy="560" r="240" fill="#2fb4ff" opacity=".10"/><path d="M0 610 C260 520 420 690 690 585 S1030 510 1200 560 V675 H0Z" fill="#ffffff" opacity=".06"/><text x="70" y="92" fill="#ffbd6b" font-family="Inter,Arial" font-size="26" font-weight="800" letter-spacing="3">ZICTEC BLOG</text><text x="70" y="145" fill="#fff" font-family="Inter,Arial" font-size="46" font-weight="900">ISP + STFC</text><text x="70" y="192" fill="#c9d8ef" font-family="Inter,Arial" font-size="24">Telefonia como produto, operação e margem</text><g transform="translate(80 250)"><rect x="0" y="0" width="250" height="160" rx="24" fill="#fff" opacity=".12" stroke="#fff" stroke-opacity=".25"/><text x="28" y="56" fill="#fff" font-family="Inter,Arial" font-size="28" font-weight="900">ISP</text><text x="28" y="96" fill="#c9d8ef" font-family="Inter,Arial" font-size="20">Cliente • cobrança • suporte</text><path d="M280 80 H455" stroke="url(#or)" stroke-width="8" stroke-linecap="round" filter="url(#glow)"/><circle cx="500" cy="80" r="54" fill="url(#or)"/><text x="469" y="91" fill="#071831" font-family="Inter,Arial" font-size="28" font-weight="900">voz</text><path d="M555 80 H730" stroke="url(#or)" stroke-width="8" stroke-linecap="round" filter="url(#glow)"/><rect x="760" y="0" width="300" height="160" rx="24" fill="#fff" opacity=".12" stroke="#fff" stroke-opacity=".25"/><text x="790" y="56" fill="#fff" font-family="Inter,Arial" font-size="28" font-weight="900">STFC</text><text x="790" y="96" fill="#c9d8ef" font-family="Inter,Arial" font-size="20">rotas • CDR • Anatel</text></g><text x="70" y="620" fill="#ffffff" opacity=".72" font-family="Inter,Arial" font-size="20" font-weight="700">Consultoria técnica e regulatória para operações de voz</text></svg>