<svg xmlns="http://www.w3.org/2000/svg" viewBox="0 0 1200 675" role="img" aria-label="SIP-I + SBC"><defs><linearGradient id="bg" x1="0" x2="1" y1="0" y2="1"><stop stop-color="#071831"/><stop offset=".55" stop-color="#0c2450"/><stop offset="1" stop-color="#5e2fb4"/></linearGradient><linearGradient id="or" x1="0" x2="1"><stop stop-color="#ff7a1a"/><stop offset="1" stop-color="#ffbd6b"/></linearGradient><filter id="glow"><feGaussianBlur stdDeviation="8" result="b"/><feMerge><feMergeNode in="b"/><feMergeNode in="SourceGraphic"/></feMerge></filter></defs><rect width="1200" height="675" fill="url(#bg)"/><circle cx="1010" cy="120" r="220" fill="#ff7a1a" opacity=".13"/><circle cx="160" cy="560" r="240" fill="#2fb4ff" opacity=".10"/><path d="M0 610 C260 520 420 690 690 585 S1030 510 1200 560 V675 H0Z" fill="#ffffff" opacity=".06"/><text x="70" y="92" fill="#ffbd6b" font-family="Inter,Arial" font-size="26" font-weight="800" letter-spacing="3">ZICTEC BLOG</text><text x="70" y="145" fill="#fff" font-family="Inter,Arial" font-size="46" font-weight="900">SIP-I + SBC</text><text x="70" y="192" fill="#c9d8ef" font-family="Inter,Arial" font-size="24">ISUP sobre IP, links dedicados e BGP</text><g transform="translate(80 238)" font-family="Inter,Arial"><rect x="0" y="0" width="220" height="90" rx="20" fill="#fff" opacity=".14"/><rect x="0" y="150" width="220" height="90" rx="20" fill="#fff" opacity=".14"/><rect x="900" y="0" width="220" height="90" rx="20" fill="#fff" opacity=".14"/><rect x="900" y="150" width="220" height="90" rx="20" fill="#fff" opacity=".14"/><text x="20" y="-18" fill="#ffbd6b" font-size="20" font-weight="900">Operadora A</text><text x="48" y="55" fill="#fff" font-size="24" font-weight="900">SBC A1</text><text x="48" y="205" fill="#fff" font-size="24" font-weight="900">SBC A2</text><text x="915" y="-18" fill="#ffbd6b" font-size="20" font-weight="900">Operadora B</text><text x="948" y="55" fill="#fff" font-size="24" font-weight="900">SBC B1</text><text x="948" y="205" fill="#fff" font-size="24" font-weight="900">SBC B2</text><path d="M230 45 C420 20 700 20 890 45" stroke="#ffbd6b" stroke-width="8" fill="none"/><path d="M230 195 C420 220 700 220 890 195" stroke="#ffbd6b" stroke-width="8" fill="none"/><path d="M230 45 C440 155 690 155 890 195" stroke="#6ed0ff" stroke-width="5" fill="none" opacity=".85"/><path d="M230 195 C440 85 690 85 890 45" stroke="#6ed0ff" stroke-width="5" fill="none" opacity=".85"/><circle cx="560" cy="120" r="72" fill="url(#or)"/><text x="520" y="112" fill="#071831" font-size="25" font-weight="900">SIP-I</text><text x="514" y="144" fill="#071831" font-size="20" font-weight="800">ISUP</text><text x="410" y="285" fill="#c9d8ef" font-size="22" font-weight="800">BGP • redundância • links dedicados cruzados</text><text x="368" y="18" fill="#ffbd6b" font-size="16" font-weight="800">primário</text><text x="700" y="224" fill="#6ed0ff" font-size="16" font-weight="800">secundário/failover</text></g><text x="70" y="620" fill="#ffffff" opacity=".72" font-family="Inter,Arial" font-size="20" font-weight="700">Consultoria técnica e regulatória para operações de voz</text></svg>