<svg xmlns="http://www.w3.org/2000/svg" viewBox="0 0 1200 675" role="img" aria-label="Diagrama STIR/SHAKEN, RCD e Origem Verificada"><defs><linearGradient id="bg" x1="0" y1="0" x2="1" y2="1"><stop stop-color="#06152d"/><stop offset=".55" stop-color="#0b2552"/><stop offset="1" stop-color="#40278d"/></linearGradient><linearGradient id="orange" x1="0" x2="1"><stop stop-color="#ff7a1a"/><stop offset="1" stop-color="#ffc078"/></linearGradient><linearGradient id="cyan" x1="0" x2="1"><stop stop-color="#52d6ff"/><stop offset="1" stop-color="#8b7cff"/></linearGradient><filter id="shadow" x="-20%" y="-20%" width="140%" height="140%"><feDropShadow dx="0" dy="22" stdDeviation="18" flood-color="#000" flood-opacity=".30"/></filter></defs><rect width="1200" height="675" fill="url(#bg)"/><circle cx="1000" cy="105" r="205" fill="#ff7a1a" opacity=".11"/><circle cx="150" cy="560" r="245" fill="#52d6ff" opacity=".09"/><path d="M0 560 C230 500 410 645 640 570 C860 500 1010 500 1200 545 V675 H0Z" fill="#fff" opacity=".055"/><g font-family="Inter,Arial,sans-serif"><text x="72" y="82" fill="#ffbf78" font-size="22" font-weight="900" letter-spacing="4">ZICTEC • CHAMADA VERIFICADA</text><text x="72" y="134" fill="#fff" font-size="44" font-weight="900">STIR/SHAKEN + RCD</text><text x="72" y="172" fill="#d7e4f7" font-size="22" font-weight="600">Autenticação, governança e identificação em camadas</text></g><g filter="url(#shadow)" font-family="Inter,Arial,sans-serif"><rect x="70" y="250" width="175" height="110" rx="24" fill="#ffffff" opacity=".96"/><text x="107" y="293" fill="#071831" font-size="22" font-weight="900">Empresa</text><text x="104" y="326" fill="#52627a" font-size="18" font-weight="800">número + marca</text><rect x="300" y="232" width="190" height="146" rx="28" fill="#102e60" stroke="#5f88d4"/><text x="340" y="279" fill="#fff" font-size="23" font-weight="900">Origem</text><text x="327" y="318" fill="#b9cdf0" font-size="18" font-weight="800">SBC / rede</text><rect x="535" y="212" width="165" height="185" rx="34" fill="url(#orange)"/><text x="582" y="266" fill="#071831" font-size="30" font-weight="900">AIA</text><text x="557" y="303" fill="#071831" font-size="20" font-weight="900">ABR Telecom</text><rect x="575" y="328" width="86" height="38" rx="12" fill="#071831" opacity=".16"/><path d="M597 331 v-16 a21 21 0 0 1 42 0 v16" fill="none" stroke="#071831" stroke-width="8" stroke-linecap="round" opacity=".75"/><rect x="746" y="232" width="190" height="146" rx="28" fill="#102e60" stroke="#5f88d4"/><text x="785" y="279" fill="#fff" font-size="23" font-weight="900">Destino</text><text x="773" y="318" fill="#b9cdf0" font-size="18" font-weight="800">verificação</text><rect x="995" y="220" width="120" height="190" rx="30" fill="#101827" stroke="#d7e4f7" stroke-width="3"/><rect x="1010" y="245" width="90" height="130" rx="20" fill="#f7fbff"/><circle cx="1055" cy="392" r="7" fill="#d7e4f7"/><text x="1024" y="278" fill="#071831" font-size="16" font-weight="900">ZICTEC</text><rect x="1021" y="298" width="68" height="42" rx="12" fill="#fff1e6"/><text x="1044" y="328" fill="#ff7a1a" font-size="20" font-weight="900">✓</text><text x="1022" y="360" fill="#52627a" font-size="13" font-weight="900">verificada</text></g><g stroke-linecap="round" fill="none"><path d="M250 305 H298" stroke="#d7e4f7" stroke-width="6" opacity=".78"/><path d="M493 305 H533" stroke="#ffbd78" stroke-width="6"/><path d="M702 305 H744" stroke="#ffbd78" stroke-width="6"/><path d="M940 305 H993" stroke="#d7e4f7" stroke-width="6" opacity=".78"/><path d="M370 219 C460 167 565 164 618 207 C670 164 784 167 858 219" stroke="url(#cyan)" stroke-width="4" opacity=".55" stroke-dasharray="9 12"/></g><g font-family="Inter,Arial,sans-serif"><g transform="translate(86 476)"><rect width="300" height="86" rx="22" fill="#ffffff" opacity=".11" stroke="#ffffff" stroke-opacity=".18"/><text x="24" y="36" fill="#fff" font-size="20" font-weight="900">1. STIR/SHAKEN</text><text x="24" y="65" fill="#d8e6fb" font-size="17" font-weight="800">autentica a origem</text></g><g transform="translate(450 476)"><rect width="300" height="86" rx="22" fill="#ffffff" opacity=".11" stroke="#ffffff" stroke-opacity=".18"/><text x="24" y="36" fill="#fff" font-size="20" font-weight="900">2. RCD</text><text x="24" y="65" fill="#d8e6fb" font-size="17" font-weight="800">enriquece a apresentação</text></g><g transform="translate(814 476)"><rect width="300" height="86" rx="22" fill="#ffffff" opacity=".11" stroke="#ffffff" stroke-opacity=".18"/><text x="24" y="36" fill="#fff" font-size="20" font-weight="900">3. Origem Verificada</text><text x="24" y="65" fill="#d8e6fb" font-size="17" font-weight="800">governa a identificação</text></g><text x="72" y="624" fill="#a9bedf" font-size="18" font-weight="800">Camadas relacionadas — não a mesma entrega comercial.</text></g></svg>