<svg xmlns="http://www.w3.org/2000/svg" viewBox="0 0 1200 675" role="img" aria-label="STIR/SHAKEN"><defs><linearGradient id="bg" x1="0" x2="1" y1="0" y2="1"><stop stop-color="#071831"/><stop offset=".55" stop-color="#0c2450"/><stop offset="1" stop-color="#5e2fb4"/></linearGradient><linearGradient id="or" x1="0" x2="1"><stop stop-color="#ff7a1a"/><stop offset="1" stop-color="#ffbd6b"/></linearGradient><filter id="glow"><feGaussianBlur stdDeviation="8" result="b"/><feMerge><feMergeNode in="b"/><feMergeNode in="SourceGraphic"/></feMerge></filter></defs><rect width="1200" height="675" fill="url(#bg)"/><circle cx="1010" cy="120" r="220" fill="#ff7a1a" opacity=".13"/><circle cx="160" cy="560" r="240" fill="#2fb4ff" opacity=".10"/><path d="M0 610 C260 520 420 690 690 585 S1030 510 1200 560 V675 H0Z" fill="#ffffff" opacity=".06"/><text x="70" y="92" fill="#ffbd6b" font-family="Inter,Arial" font-size="26" font-weight="800" letter-spacing="3">ZICTEC BLOG</text><text x="70" y="145" fill="#fff" font-family="Inter,Arial" font-size="46" font-weight="900">STIR/SHAKEN</text><text x="70" y="192" fill="#c9d8ef" font-family="Inter,Arial" font-size="24">Autenticação, reputação e Origem Verificada</text><g transform="translate(90 245)" font-family="Inter,Arial"><path d="M80 150 H1010" stroke="#ffffff" stroke-width="4" opacity=".22"/><g><circle cx="120" cy="150" r="54" fill="#fff" opacity=".12"/><text x="88" y="157" fill="#fff" font-size="23" font-weight="900">Spoof</text><text x="55" y="230" fill="#c9d8ef" font-size="20">robocalls</text></g><g><circle cx="420" cy="150" r="64" fill="#fff" opacity=".12"/><text x="376" y="145" fill="#fff" font-size="23" font-weight="900">STIR</text><text x="364" y="173" fill="#fff" font-size="23" font-weight="900">SHAKEN</text><text x="355" y="242" fill="#c9d8ef" font-size="20">assinatura</text></g><g><circle cx="720" cy="150" r="64" fill="url(#or)"/><text x="670" y="145" fill="#071831" font-size="23" font-weight="900">Brasil</text><text x="658" y="173" fill="#071831" font-size="20" font-weight="800">adoção</text><text x="650" y="242" fill="#c9d8ef" font-size="20">ecossistema</text></g><g><circle cx="1010" cy="150" r="70" fill="#fff" opacity=".14"/><text x="958" y="145" fill="#fff" font-size="22" font-weight="900">Origem</text><text x="936" y="173" fill="#fff" font-size="22" font-weight="900">Verificada</text><text x="935" y="248" fill="#c9d8ef" font-size="20">marca + confiança</text></g></g><text x="70" y="620" fill="#ffffff" opacity=".72" font-family="Inter,Arial" font-size="20" font-weight="700">Consultoria técnica e regulatória para operações de voz</text></svg>